<?xml version="1.0" encoding="UTF-8"?>
<svg id="Layer_1" data-name="Layer 1" xmlns="http://www.w3.org/2000/svg" viewBox="0 0 1150.87 425.2">
  <defs>
    <style>
      .cls-1 {
        fill: none;
      }

      .cls-2 {
        fill: #289b37;
      }
    </style>
  </defs>
  <rect class="cls-1" width="1150.87" height="425.2"/>
  <g>
    <g>
      <path d="M435.74,211.43c-2.51-4.38-5.95-7.77-10.33-10.17-4.37-2.4-9.36-3.6-14.94-3.6s-10.72,1.24-15.21,3.71c-4.48,2.47-8,5.92-10.55,10.33-2.54,4.41-3.81,9.41-3.81,15s1.3,10.67,3.92,15.04c2.62,4.38,6.31,7.81,11.07,10.28,4.77,2.47,10.29,3.71,16.58,3.71,5.09,0,9.56-.76,13.41-2.28,3.85-1.52,7.12-3.76,9.8-6.73l-7.73-8.58c-1.91,1.98-4.1,3.46-6.57,4.45-2.47,.99-5.26,1.48-8.37,1.48-3.6,0-6.79-.69-9.54-2.07-2.75-1.38-4.89-3.32-6.42-5.83-.91-1.5-1.45-3.21-1.82-5.03h43.95c.07-.63,.14-1.34,.21-2.12,.07-.78,.1-1.41,.1-1.91,0-6.07-1.25-11.3-3.76-15.68Zm-38.95,5.14c1.35-2.44,3.2-4.33,5.57-5.67s5.07-2.01,8.11-2.01,5.92,.67,8.21,2.01,4.11,3.23,5.46,5.67c.9,1.65,1.39,3.5,1.68,5.46h-30.7c.3-1.98,.78-3.84,1.67-5.46Z"/>
      <path d="M502.48,208.52c-2.05-3.64-4.85-6.36-8.42-8.16-3.57-1.8-7.62-2.71-12.14-2.71-4.87,0-9.2,.99-12.98,2.97-2.77,1.45-4.92,3.51-6.75,5.87-2.11-5.18-7.19-8.84-13.12-8.84-3.92,0-7.09,3.17-7.09,7.08s3.18,7.08,7.09,7.08v43.26h14.31v-28.51c0-3.75,.62-6.82,1.86-9.22s3-4.22,5.3-5.46c2.29-1.24,4.96-1.86,8-1.86,4.02,0,7.17,1.21,9.43,3.6,2.26,2.4,3.39,6.04,3.39,10.92v30.52h14.2v-32.43c0-5.79-1.03-10.51-3.08-14.15Z"/>
      <path d="M896.42,208.52c-2.05-3.64-4.85-6.36-8.42-8.16-3.57-1.8-7.62-2.71-12.14-2.71-4.87,0-9.2,.99-12.98,2.97-2.77,1.45-4.92,3.51-6.75,5.87-2.11-5.18-7.19-8.84-13.12-8.84-3.92,0-7.09,3.17-7.09,7.08s3.18,7.08,7.09,7.08v43.26h14.31v-28.51c0-3.75,.62-6.82,1.86-9.22,1.24-2.4,3-4.22,5.3-5.46,2.29-1.24,4.96-1.86,8-1.86,4.02,0,7.17,1.21,9.43,3.6,2.26,2.4,3.39,6.04,3.39,10.92v30.52h14.2v-32.43c0-5.79-1.03-10.51-3.08-14.15Z"/>
      <path d="M561.88,198.4v6.61c-1.51-1.7-3.2-3.14-5.15-4.23-3.71-2.08-7.93-3.12-12.66-3.12-5.45,0-10.33,1.2-14.68,3.6s-7.75,5.8-10.23,10.17c-2.47,4.38-3.7,9.47-3.7,15.26s1.23,10.99,3.7,15.37c2.48,4.38,5.89,7.75,10.23,10.12,4.35,2.37,9.23,3.55,14.68,3.55,4.87,0,9.14-1.02,12.82-3.07,2.18-1.22,3.99-2.98,5.62-5.01v7.44h13.56v-56.69h-14.2Zm-1.91,37.46c-1.42,2.65-3.32,4.66-5.72,6.04-2.4,1.38-5.16,2.07-8.26,2.07s-5.78-.69-8.21-2.07c-2.44-1.38-4.37-3.39-5.78-6.04-1.41-2.65-2.12-5.7-2.12-9.17s.71-6.59,2.12-9.17c1.42-2.58,3.34-4.54,5.78-5.88,2.43-1.34,5.18-2.01,8.21-2.01s5.86,.67,8.26,2.01c2.4,1.34,4.31,3.3,5.72,5.88,1.42,2.58,2.12,5.63,2.12,9.17s-.7,6.51-2.12,9.17Z"/>
      <path d="M618.58,242.06c-1.97,1.55-4.38,2.33-7.21,2.33-2.32,0-4.18-.72-5.56-2.17-1.39-1.45-2.07-3.48-2.07-6.09v-25.85h14.83v-11.24h-14.83v-13.14h-14.2v50.55c0,6.36,1.75,11.17,5.24,14.41,3.5,3.25,8.43,4.87,14.79,4.87,2.47,0,4.83-.3,7.1-.9,2.26-.6,4.2-1.5,5.83-2.71l-3.93-10.06Z"/>
      <path d="M670.68,198.4v28.51c0,3.6-.63,6.64-1.9,9.12-1.27,2.47-3.01,4.33-5.2,5.56s-4.77,1.86-7.73,1.86c-4.1,0-7.26-1.22-9.48-3.66-2.23-2.44-3.34-6.13-3.34-11.07v-30.31h-14.2v32.22c0,5.72,1.03,10.47,3.08,14.25,2.04,3.78,4.9,6.53,8.58,8.26,3.67,1.73,7.94,2.6,12.82,2.6,4.31,0,8.29-.97,11.97-2.92,2.45-1.3,4.37-3.13,6.04-5.2v7.48h13.56v-56.69h-14.2Z"/>
      <path d="M717.8,200.68c-2.73,1.49-4.72,3.68-6.36,6.21v-8.49h-13.56v56.69h14.31v-27.34c0-5.65,1.45-9.89,4.35-12.72,2.9-2.82,6.82-4.24,11.77-4.24,.49,0,.99,.04,1.48,.11,.49,.07,1.05,.14,1.69,.21v-13.46c-5.44,0-10,1.01-13.67,3.02Z"/>
      <path d="M779.38,198.4v6.61c-1.51-1.7-3.2-3.14-5.15-4.23-3.71-2.08-7.93-3.12-12.66-3.12-5.45,0-10.33,1.2-14.68,3.6s-7.75,5.8-10.23,10.17c-2.47,4.38-3.7,9.47-3.7,15.26s1.23,10.99,3.7,15.37c2.48,4.38,5.89,7.75,10.23,10.12,4.35,2.37,9.23,3.55,14.68,3.55,4.87,0,9.14-1.02,12.82-3.07,2.18-1.22,3.99-2.98,5.62-5.01v7.44h13.56v-56.69h-14.2Zm-1.91,37.46c-1.42,2.65-3.32,4.66-5.72,6.04-2.4,1.38-5.16,2.07-8.26,2.07s-5.78-.69-8.21-2.07c-2.44-1.38-4.37-3.39-5.78-6.04-1.41-2.65-2.12-5.7-2.12-9.17s.71-6.59,2.12-9.17c1.42-2.58,3.34-4.54,5.78-5.88,2.43-1.34,5.18-2.01,8.21-2.01s5.86,.67,8.26,2.01c2.4,1.34,4.31,3.3,5.72,5.88,1.42,2.58,2.12,5.63,2.12,9.17s-.7,6.51-2.12,9.17Z"/>
      <path d="M826.34,255.73c-6.07,0-10.79-1.61-14.14-4.82-3.36-3.21-5.04-7.83-5.04-13.83v-60.62h14.31v59.66c0,2.62,.63,4.65,1.91,6.09,1.27,1.45,3.17,2.17,5.71,2.17,.92,0,1.81-.12,2.66-.37,.85-.24,1.55-.51,2.12-.8l.63,11.34c-1.35,.36-2.71,.64-4.08,.85-1.38,.21-2.73,.32-4.08,.32Z"/>
      <path d="M919.42,189.71c-2.26,0-4.15-.76-5.66-2.28-1.52-1.52-2.29-3.41-2.29-5.67s.76-4.17,2.29-5.72c1.51-1.55,3.41-2.33,5.66-2.33s4.15,.78,5.67,2.33c1.51,1.55,2.28,3.46,2.28,5.72s-.76,4.15-2.28,5.67c-1.52,1.52-3.41,2.28-5.67,2.28Zm-7.1,65.39v-56.69h14.31v56.69h-14.31Z"/>
      <path d="M991.72,211.43c-2.51-4.38-5.95-7.77-10.33-10.17-4.37-2.4-9.36-3.6-14.94-3.6s-10.72,1.24-15.21,3.71c-4.48,2.47-8,5.92-10.55,10.33-2.54,4.41-3.81,9.41-3.81,15s1.3,10.67,3.92,15.04c2.62,4.38,6.31,7.81,11.07,10.28,4.77,2.47,10.29,3.71,16.58,3.71,5.09,0,9.56-.76,13.41-2.28s7.12-3.76,9.8-6.73l-7.73-8.58c-1.91,1.98-4.1,3.46-6.57,4.45-2.47,.99-5.26,1.48-8.37,1.48-3.6,0-6.79-.69-9.54-2.07s-4.89-3.32-6.42-5.83c-.91-1.5-1.45-3.21-1.82-5.03h43.95c.07-.63,.14-1.34,.21-2.12,.07-.78,.1-1.41,.1-1.91,0-6.07-1.25-11.3-3.76-15.68Zm-38.95,5.14c1.35-2.44,3.2-4.33,5.57-5.67,2.36-1.34,5.07-2.01,8.11-2.01s5.92,.67,8.21,2.01,4.11,3.23,5.46,5.67c.9,1.65,1.39,3.5,1.68,5.46h-30.7c.3-1.98,.78-3.84,1.67-5.46Z"/>
    </g>
    <g>
      <path class="cls-2" d="M233.34,283.46c-42.98,0-77.95-34.97-77.95-77.95v-7.09h35.43c19.54,0,35.43,15.9,35.43,35.43,0,3.91-3.17,7.09-7.09,7.09s-7.09-3.17-7.09-7.09c0-11.72-9.54-21.26-21.26-21.26h-20.87c3.54,31.84,30.62,56.69,63.39,56.69s59.85-24.85,63.39-56.69h-20.87c-11.72,0-21.26,9.54-21.26,21.26,0,3.91-3.17,7.09-7.09,7.09s-7.09-3.17-7.09-7.09c0-19.54,15.9-35.43,35.43-35.43h35.43v7.09c0,42.98-34.97,77.95-77.95,77.95Z"/>
      <path class="cls-2" d="M261.69,184.25c-3.91,0-7.09-3.17-7.09-7.09,0-11.72-9.54-21.26-21.26-21.26s-21.26,9.54-21.26,21.26c0,3.91-3.17,7.09-7.09,7.09s-7.09-3.17-7.09-7.09c0-19.54,15.9-35.43,35.43-35.43s35.43,15.9,35.43,35.43c0,3.91-3.17,7.09-7.09,7.09Z"/>
    </g>
  </g>
</svg>