<svg width="841" height="142" viewBox="0 0 841 142" fill="none" xmlns="http://www.w3.org/2000/svg">
<path d="M280.35 69.7C277.84 65.32 274.4 61.93 270.02 59.53C265.65 57.13 260.66 55.93 255.08 55.93C249.5 55.93 244.36 57.17 239.87 59.64C235.39 62.11 231.87 65.56 229.32 69.97C226.78 74.38 225.51 79.38 225.51 84.97C225.51 90.56 226.81 95.64 229.43 100.01C232.05 104.39 235.74 107.82 240.5 110.29C245.27 112.76 250.79 114 257.08 114C262.17 114 266.64 113.24 270.49 111.72C274.34 110.2 277.61 107.96 280.29 104.99L272.56 96.41C270.65 98.39 268.46 99.87 265.99 100.86C263.52 101.85 260.73 102.34 257.62 102.34C254.02 102.34 250.83 101.65 248.08 100.27C245.33 98.89 243.19 96.95 241.66 94.44C240.75 92.94 240.21 91.23 239.84 89.41H283.79C283.86 88.78 283.93 88.07 284 87.29C284.07 86.51 284.1 85.88 284.1 85.38C284.1 79.31 282.85 74.08 280.34 69.7H280.35ZM241.4 74.84C242.75 72.4 244.6 70.51 246.97 69.17C249.34 67.83 252.04 67.16 255.08 67.16C258.12 67.16 261 67.83 263.29 69.17C265.58 70.51 267.4 72.4 268.75 74.84C269.65 76.49 270.14 78.34 270.43 80.3H239.73C240.03 78.32 240.51 76.46 241.4 74.84Z" fill="black"/>
<path d="M347.09 66.79C345.04 63.15 342.24 60.43 338.67 58.63C335.1 56.83 331.05 55.92 326.53 55.92C321.66 55.92 317.33 56.91 313.55 58.89C310.78 60.34 308.63 62.4 306.8 64.76C304.69 59.58 299.61 55.92 293.68 55.92C289.76 55.92 286.59 59.09 286.59 63C286.59 66.91 289.77 70.08 293.68 70.08V113.34H307.99V84.83C307.99 81.08 308.61 78.01 309.85 75.61C311.09 73.21 312.85 71.39 315.15 70.15C317.44 68.91 320.11 68.29 323.15 68.29C327.17 68.29 330.32 69.5 332.58 71.89C334.84 74.29 335.97 77.93 335.97 82.81V113.33H350.17V80.9C350.17 75.11 349.14 70.39 347.09 66.75V66.79Z" fill="black"/>
<path d="M741.03 66.79C738.98 63.15 736.18 60.43 732.61 58.63C729.04 56.83 724.99 55.92 720.47 55.92C715.6 55.92 711.27 56.91 707.49 58.89C704.72 60.34 702.57 62.4 700.74 64.76C698.63 59.58 693.55 55.92 687.62 55.92C683.7 55.92 680.53 59.09 680.53 63C680.53 66.91 683.71 70.08 687.62 70.08V113.34H701.93V84.83C701.93 81.08 702.55 78.01 703.79 75.61C705.03 73.21 706.79 71.39 709.09 70.15C711.38 68.91 714.05 68.29 717.09 68.29C721.11 68.29 724.26 69.5 726.52 71.89C728.78 74.29 729.91 77.93 729.91 82.81V113.33H744.11V80.9C744.11 75.11 743.08 70.39 741.03 66.75V66.79Z" fill="black"/>
<path d="M406.49 56.67V63.28C404.98 61.58 403.29 60.14 401.34 59.05C397.63 56.97 393.41 55.93 388.68 55.93C383.23 55.93 378.35 57.13 374 59.53C369.65 61.93 366.25 65.33 363.77 69.7C361.3 74.08 360.07 79.17 360.07 84.96C360.07 90.75 361.3 95.95 363.77 100.33C366.25 104.71 369.66 108.08 374 110.45C378.35 112.82 383.23 114 388.68 114C393.55 114 397.82 112.98 401.5 110.93C403.68 109.71 405.49 107.95 407.12 105.92V113.36H420.68V56.67H406.48H406.49ZM404.58 94.13C403.16 96.78 401.26 98.79 398.86 100.17C396.46 101.55 393.7 102.24 390.6 102.24C387.5 102.24 384.82 101.55 382.39 100.17C379.95 98.79 378.02 96.78 376.61 94.13C375.2 91.48 374.49 88.43 374.49 84.96C374.49 81.49 375.2 78.37 376.61 75.79C378.03 73.21 379.95 71.25 382.39 69.91C384.82 68.57 387.57 67.9 390.6 67.9C393.63 67.9 396.46 68.57 398.86 69.91C401.26 71.25 403.17 73.21 404.58 75.79C406 78.37 406.7 81.42 406.7 84.96C406.7 88.5 406 91.47 404.58 94.13Z" fill="black"/>
<path d="M463.19 100.33C461.22 101.88 458.81 102.66 455.98 102.66C453.66 102.66 451.8 101.94 450.42 100.49C449.03 99.04 448.35 97.01 448.35 94.4V68.55H463.18V57.31H448.35V44.17H434.15V94.72C434.15 101.08 435.9 105.89 439.39 109.13C442.89 112.38 447.82 114 454.18 114C456.65 114 459.01 113.7 461.28 113.1C463.54 112.5 465.48 111.6 467.11 110.39L463.18 100.33H463.19Z" fill="black"/>
<path d="M515.29 56.67V85.18C515.29 88.78 514.66 91.82 513.39 94.3C512.12 96.77 510.38 98.63 508.19 99.86C506 101.09 503.42 101.72 500.46 101.72C496.36 101.72 493.2 100.5 490.98 98.06C488.75 95.62 487.64 91.93 487.64 86.99V56.68H473.44V88.9C473.44 94.62 474.47 99.37 476.52 103.15C478.56 106.93 481.42 109.68 485.1 111.41C488.77 113.14 493.04 114.01 497.92 114.01C502.23 114.01 506.21 113.04 509.89 111.09C512.34 109.79 514.26 107.96 515.93 105.89V113.37H529.49V56.68H515.29V56.67Z" fill="black"/>
<path d="M562.41 58.95C559.68 60.44 557.69 62.63 556.05 65.16V56.67H542.49V113.36H556.8V86.02C556.8 80.37 558.25 76.13 561.15 73.3C564.05 70.48 567.97 69.06 572.92 69.06C573.41 69.06 573.91 69.1 574.4 69.17C574.89 69.24 575.45 69.31 576.09 69.38V55.92C570.65 55.92 566.09 56.93 562.42 58.94L562.41 58.95Z" fill="black"/>
<path d="M623.99 56.67V63.28C622.48 61.58 620.79 60.14 618.84 59.05C615.13 56.97 610.91 55.93 606.18 55.93C600.73 55.93 595.85 57.13 591.5 59.53C587.15 61.93 583.75 65.33 581.27 69.7C578.8 74.08 577.57 79.17 577.57 84.96C577.57 90.75 578.8 95.95 581.27 100.33C583.75 104.71 587.16 108.08 591.5 110.45C595.85 112.82 600.73 114 606.18 114C611.05 114 615.32 112.98 619 110.93C621.18 109.71 622.99 107.95 624.62 105.92V113.36H638.18V56.67H623.98H623.99ZM622.08 94.13C620.66 96.78 618.76 98.79 616.36 100.17C613.96 101.55 611.2 102.24 608.1 102.24C605 102.24 602.32 101.55 599.89 100.17C597.45 98.79 595.52 96.78 594.11 94.13C592.7 91.48 591.99 88.43 591.99 84.96C591.99 81.49 592.7 78.37 594.11 75.79C595.53 73.21 597.45 71.25 599.89 69.91C602.32 68.57 605.07 67.9 608.1 67.9C611.13 67.9 613.96 68.57 616.36 69.91C618.76 71.25 620.67 73.21 622.08 75.79C623.5 78.37 624.2 81.42 624.2 84.96C624.2 88.5 623.5 91.47 622.08 94.13Z" fill="black"/>
<path d="M670.95 114C664.88 114 660.16 112.39 656.81 109.18C653.45 105.97 651.77 101.35 651.77 95.35V34.73H666.08V94.39C666.08 97.01 666.71 99.04 667.99 100.48C669.26 101.93 671.16 102.65 673.7 102.65C674.62 102.65 675.51 102.53 676.36 102.28C677.21 102.04 677.91 101.77 678.48 101.48L679.11 112.82C677.76 113.18 676.4 113.46 675.03 113.67C673.65 113.88 672.3 113.99 670.95 113.99V114Z" fill="black"/>
<path d="M764.03 47.98C761.77 47.98 759.88 47.22 758.37 45.7C756.85 44.18 756.08 42.29 756.08 40.03C756.08 37.77 756.84 35.86 758.37 34.31C759.88 32.76 761.78 31.98 764.03 31.98C766.28 31.98 768.18 32.76 769.7 34.31C771.21 35.86 771.98 37.77 771.98 40.03C771.98 42.29 771.22 44.18 769.7 45.7C768.18 47.22 766.29 47.98 764.03 47.98ZM756.93 113.37V56.68H771.24V113.37H756.93Z" fill="black"/>
<path d="M836.33 69.7C833.82 65.32 830.38 61.93 826 59.53C821.63 57.13 816.64 55.93 811.06 55.93C805.48 55.93 800.34 57.17 795.85 59.64C791.37 62.11 787.85 65.56 785.3 69.97C782.76 74.38 781.49 79.38 781.49 84.97C781.49 90.56 782.79 95.64 785.41 100.01C788.03 104.39 791.72 107.82 796.48 110.29C801.25 112.76 806.77 114 813.06 114C818.15 114 822.62 113.24 826.47 111.72C830.32 110.2 833.59 107.96 836.27 104.99L828.54 96.41C826.63 98.39 824.44 99.87 821.97 100.86C819.5 101.85 816.71 102.34 813.6 102.34C810 102.34 806.81 101.65 804.06 100.27C801.31 98.89 799.17 96.95 797.64 94.44C796.73 92.94 796.19 91.23 795.82 89.41H839.77C839.84 88.78 839.91 88.07 839.98 87.29C840.05 86.51 840.08 85.88 840.08 85.38C840.08 79.31 838.83 74.08 836.32 69.7H836.33ZM797.38 74.84C798.73 72.4 800.58 70.51 802.95 69.17C805.31 67.83 808.02 67.16 811.06 67.16C814.1 67.16 816.98 67.83 819.27 69.17C821.56 70.51 823.38 72.4 824.73 74.84C825.63 76.49 826.12 78.34 826.41 80.3H795.71C796.01 78.32 796.49 76.46 797.38 74.84Z" fill="black"/>
<path d="M77.95 141.73C34.97 141.73 0 106.76 0 63.78V56.69H35.43C54.97 56.69 70.86 72.59 70.86 92.12C70.86 96.03 67.69 99.21 63.77 99.21C59.85 99.21 56.68 96.04 56.68 92.12C56.68 80.4 47.14 70.86 35.42 70.86H14.55C18.09 102.7 45.17 127.55 77.94 127.55C110.71 127.55 137.79 102.7 141.33 70.86H120.46C108.74 70.86 99.2 80.4 99.2 92.12C99.2 96.03 96.03 99.21 92.11 99.21C88.19 99.21 85.02 96.04 85.02 92.12C85.02 72.58 100.92 56.69 120.45 56.69H155.88V63.78C155.88 106.76 120.91 141.73 77.93 141.73H77.95Z" fill="#289B37"/>
<path d="M106.3 42.52C102.39 42.52 99.21 39.35 99.21 35.43C99.21 23.71 89.67 14.17 77.95 14.17C66.23 14.17 56.69 23.71 56.69 35.43C56.69 39.34 53.52 42.52 49.6 42.52C45.68 42.52 42.51 39.35 42.51 35.43C42.51 15.89 58.41 0 77.94 0C97.47 0 113.37 15.9 113.37 35.43C113.37 39.34 110.2 42.52 106.28 42.52H106.3Z" fill="#289B37"/>
</svg>
